<svg width="231" height="71" viewBox="0 0 231 71" fill="none" xmlns="http://www.w3.org/2000/svg">
<path d="M0 11H220V15.6977V56.7956V62.1341V71H110H55H27.5H19.875L0 51V41V11Z" fill="#71FF01"/>
<mask id="path-2-outside-1_308_1221" maskUnits="userSpaceOnUse" x="10" y="0" width="221" height="62" fill="black">
<rect fill="white" x="10" width="221" height="62"/>
<path d="M11 1H230V5.69769V46.7956V52.1341V61H120.5H65.75H38.375H31.5L11 41V31V1Z"/>
</mask>
<path d="M11 1V0H10V1H11ZM230 1H231V0H230V1ZM230 61V62H231V61H230ZM31.5 61L30.8017 61.7158L31.093 62H31.5V61ZM11 41H10V41.4215L10.3017 41.7158L11 41ZM11 2H230V0H11V2ZM229 1V5.69769H231V1H229ZM229 52.1341V61H231V52.1341H229ZM229 5.69769V46.7956H231V5.69769H229ZM229 46.7956V52.1341H231V46.7956H229ZM12 31V1H10V31H12ZM12 41V31H10V41H12ZM230 60H120.5V62H230V60ZM120.5 60H65.75V62H120.5V60ZM32.1983 60.2842L11.6983 40.2842L10.3017 41.7158L30.8017 61.7158L32.1983 60.2842ZM65.75 60H38.375V62H65.75V60ZM38.375 60H31.5V62H38.375V60Z" fill="#00081A" mask="url(#path-2-outside-1_308_1221)"/>
</svg>
