<?xml version="1.0" encoding="utf-8"?>
<!-- Generator: Adobe Illustrator 27.8.1, SVG Export Plug-In . SVG Version: 6.00 Build 0)  -->
<svg version="1.1" id="レイヤー_1" xmlns="http://www.w3.org/2000/svg" xmlns:xlink="http://www.w3.org/1999/xlink" x="0px"
	 y="0px" viewBox="0 0 313 71" style="enable-background:new 0 0 313 71;" xml:space="preserve">
<style type="text/css">
	.st0{fill:#71FF01;}
	.st1{fill:#FFFFFF;filter:url(#Adobe_OpacityMaskFilter);}
	.st2{mask:url(#path-2-inside-1_501_695_00000173865159841735140270000005996907972943933885_);fill:#00081A;}
</style>
<path class="st0" d="M0,11h300v4.7v41.1v5.3V71H150H75H37.5H20L0,51V41V11z"/>
<defs>
	<filter id="Adobe_OpacityMaskFilter" filterUnits="userSpaceOnUse" x="11" y="0" width="302" height="62">
		<feColorMatrix  type="matrix" values="1 0 0 0 0  0 1 0 0 0  0 0 1 0 0  0 0 0 1 0"/>
	</filter>
</defs>
<mask maskUnits="userSpaceOnUse" x="11" y="0" width="302" height="62" id="path-2-inside-1_501_695_00000173865159841735140270000005996907972943933885_">
	<path class="st1" d="M12,1h300v4.7v41.1v5.3V61H128.2H70.1H41.1H32L12,41V31V1z"/>
</mask>
<path class="st2" d="M12,1V0h-1v1H12z M312,1h1V0h-1V1z M312,61v1h1v-1H312z M32,61l-0.7,0.7l0.3,0.3H32V61z M12,41h-1v0.4l0.3,0.3
	L12,41z M12,2h300V0H12V2z M311,1v4.7h2V1H311z M311,52.1V61h2v-8.9H311z M311,5.7v41.1h2V5.7H311z M311,46.8v5.3h2v-5.3H311z
	 M13,31V1h-2v30H13z M13,41V31h-2v10H13z M312,60H128.2v2H312V60z M128.2,60H70.1v2h58.1V60z M32.7,60.3l-20-20l-1.4,1.4l20,20
	L32.7,60.3z M70.1,60H41.1v2h29.1V60z M41.1,60H32v2h9.1V60z"/>
</svg>
