<?xml version="1.0" encoding="utf-8"?>
<!-- Generator: Adobe Illustrator 27.8.1, SVG Export Plug-In . SVG Version: 6.00 Build 0)  -->
<svg version="1.1" id="レイヤー_1" xmlns="http://www.w3.org/2000/svg" xmlns:xlink="http://www.w3.org/1999/xlink" x="0px"
	 y="0px" viewBox="0 0 302 62" style="enable-background:new 0 0 302 62;" xml:space="preserve">
<style type="text/css">
	.st0{fill:#00081A;}
</style>
<path class="st0" d="M1,1V0H0v1H1z M301,1h1V0h-1V1z M301,61v1h1v-1H301z M21,61l-0.7,0.7l0.3,0.3H21V61z M1,41H0v0.4l0.3,0.3L1,41z
	 M1,2h300V0H1V2z M300,1v4.7h2V1H300z M300,52.1V61h2v-8.9H300z M300,5.7v41.1h2V5.7H300z M300,46.8v5.3h2v-5.3H300z M2,31V1H0v30H2
	z M2,41V31H0v10H2z M301,60H117.2v2H301V60z M117.2,60H59.1v2h58.1V60z M21.7,60.3l-20-20l-1.4,1.4l20,20L21.7,60.3z M59.1,60h-29v2
	h29.1L59.1,60L59.1,60z M30.1,60H21v2h9.1V60z"/>
</svg>
