<svg width="221" height="60" viewBox="0 0 221 60" fill="none" xmlns="http://www.w3.org/2000/svg">
<mask id="path-1-inside-1_308_1251" fill="white">
<path d="M0 0H221V4.69769V45.7956V51.1341V60H110.5H55.25H27.625L21.0955 60L0 40V30V0Z"/>
</mask>
<path d="M0 0H221V4.69769V45.7956V51.1341V60H110.5H55.25H27.625L21.0955 60L0 40V30V0Z" fill="white"/>
<path d="M0 0V-1H-1V0H0ZM221 0H222V-1H221V0ZM221 60V61H222V60H221ZM21.0955 60L20.4074 60.7257L20.6968 61H21.0955L21.0955 60ZM0 40H-1V40.4299L-0.688013 40.7257L0 40ZM27.625 60V61V60ZM0 1H221V-1H0V1ZM220 0V4.69769H222V0H220ZM220 51.1341V60H222V51.1341H220ZM220 4.69769V45.7956H222V4.69769H220ZM220 45.7956V51.1341H222V45.7956H220ZM1 30V0H-1V30H1ZM1 40V30H-1V40H1ZM221 59H110.5V61H221V59ZM110.5 59H55.25V61H110.5V59ZM55.25 59H27.625V61H55.25V59ZM27.625 59L21.0955 59L21.0955 61L27.625 61V59ZM21.7835 59.2743L0.688013 39.2743L-0.688013 40.7257L20.4074 60.7257L21.7835 59.2743Z" fill="#00081A" mask="url(#path-1-inside-1_308_1251)"/>
</svg>
