<svg width="231" height="70" viewBox="0 0 231 70" fill="none" xmlns="http://www.w3.org/2000/svg">
<path d="M0 10H220V14.6977V55.7956V61.1341V70H110H55H27.5H20L0 50V40V10Z" fill="#71FF01"/>
<mask id="path-2-inside-1_308_1236" fill="white">
<path d="M10 0H231V4.69769V45.7956V51.1341V60H120.5H65.25H37.625H30.0909L10 40V30V0Z"/>
</mask>
<path d="M10 0V-1H9V0H10ZM231 0H232V-1H231V0ZM231 60V61H232V60H231ZM30.0909 60L29.3854 60.7087L29.678 61H30.0909V60ZM10 40H9V40.4155L9.2945 40.7087L10 40ZM10 1H231V-1H10V1ZM230 0V4.69769H232V0H230ZM230 51.1341V60H232V51.1341H230ZM230 4.69769V45.7956H232V4.69769H230ZM230 45.7956V51.1341H232V45.7956H230ZM11 30V0H9V30H11ZM11 40V30H9V40H11ZM231 59H120.5V61H231V59ZM120.5 59H65.25V61H120.5V59ZM30.7964 59.2913L10.7055 39.2913L9.2945 40.7087L29.3854 60.7087L30.7964 59.2913ZM65.25 59H37.625V61H65.25V59ZM37.625 59H30.0909V61H37.625V59Z" fill="#00081A" mask="url(#path-2-inside-1_308_1236)"/>
</svg>
