<svg width="290" height="70" viewBox="0 0 290 70" fill="none" xmlns="http://www.w3.org/2000/svg">
<path d="M0 10H280V14.6977V55.7956V61.1341V70H145H77.5H43.75H20L0 50V40V10Z" fill="#71FF01"/>
<mask id="path-2-inside-1_308_1281" fill="white">
<path d="M10 0H290V4.69769V45.7956V51.1341V60H155H87.5H43.75H30L10 40V30V0Z"/>
</mask>
<path d="M10 0V-1H9V0H10ZM290 0H291V-1H290V0ZM290 60V61H291V60H290ZM30 60L29.2929 60.7071L29.5858 61H30V60ZM10 40H9V40.4142L9.29289 40.7071L10 40ZM10 1H290V-1H10V1ZM289 0V4.69769H291V0H289ZM289 51.1341V60H291V51.1341H289ZM289 4.69769V45.7956H291V4.69769H289ZM289 45.7956V51.1341H291V45.7956H289ZM11 30V0H9V30H11ZM11 40V30H9V40H11ZM290 59H155V61H290V59ZM155 59H87.5V61H155V59ZM30.7071 59.2929L10.7071 39.2929L9.29289 40.7071L29.2929 60.7071L30.7071 59.2929ZM87.5 59H43.75V61H87.5V59ZM43.75 59H30V61H43.75V59Z" fill="#00081A" mask="url(#path-2-inside-1_308_1281)"/>
</svg>
