<?xml version="1.0" encoding="UTF-8"?><svg id="b" xmlns="http://www.w3.org/2000/svg" xmlns:xlink="http://www.w3.org/1999/xlink" viewBox="0 0 1440 4249"><defs><style>.i,.j,.k,.l,.m,.n{fill:none;}.o{fill:#ccced1;}.j{clip-path:url(#h);}.k{clip-path:url(#g);}.l{clip-path:url(#e);}.m{clip-path:url(#f);}.n{clip-path:url(#d);}.p{fill:#c8c8c8;opacity:.2;}</style><clipPath id="d"><rect class="i" x="139" y="86" width="200" height="360"/></clipPath><clipPath id="e"><rect class="i" x="139" y="466" width="200" height="360"/></clipPath><clipPath id="f"><rect class="i" x="359" y="344" width="200" height="360"/></clipPath><clipPath id="g"><rect class="i" x="139" y="846" width="200" height="360"/></clipPath><clipPath id="h"><rect class="i" x="359" y="724" width="200" height="360"/></clipPath></defs><g id="c"><rect class="o" y="1710" width="1440" height="1"/><rect class="o" y="1730" width="1440" height="1"/><rect class="o" y="1829" width="1440" height="1"/><rect class="o" y="1850" width="1440" height="1"/><rect class="o" y="1950" width="1440" height="1"/><rect class="o" y="1970" width="1440" height="1"/><rect class="o" y="2069" width="1440" height="1"/><rect class="o" y="2090" width="1440" height="1"/><rect class="o" y="2189" width="1440" height="1"/><rect class="o" y="2209" width="1440" height="1"/><rect class="o" x="118" width="1" height="4249"/><rect class="o" x="139" width="1" height="4249"/><rect class="o" x="338" width="1" height="4249"/><rect class="o" x="359" width="1" height="4249"/><rect class="o" x="558" width="1" height="4249"/><rect class="o" x="579" width="1" height="4249"/><rect class="o" x="1298" width="1" height="4249"/><rect class="o" x="1319" width="1" height="4249"/><rect class="o" x="1078" width="1" height="4249"/><rect class="o" x="1099" width="1" height="4249"/><rect class="o" x="858" width="1" height="4249"/><rect class="o" x="879" width="1" height="4249"/><rect class="p" y="2614.5001221" width="1438" height="1"/><rect class="p" y="2634.5001221" width="1438" height="1"/><rect class="p" y="2734.5001221" width="1438" height="1"/><rect class="p" y="2754.5001221" width="1438" height="1"/><rect class="p" y="2854.5001221" width="1438" height="1"/><rect class="p" y="2874.5001221" width="1438" height="1"/><rect class="p" y="2974.5001221" width="1438" height="1"/><rect class="p" y="2994.5001221" width="1438" height="1"/><rect class="p" y="3094.5001221" width="1438" height="1"/><g class="n"><path class="o" d="m140,446V86h-2v360h2Zm199-1h-200v2h200v-2Zm-1-359v360h2V86h-2Zm-199,1h200v-2h-200v2Zm0,359h-1v1h1v-1Zm200,0v1h1v-1h-1Zm0-360h1v-1h-1v1Zm-200,0v-1h-1v1h1Z"/></g><g class="l"><path class="o" d="m140,826v-360h-2v360h2Zm199-1h-200v2h200v-2Zm-1-359v360h2v-360h-2Zm-199,1h200v-2h-200v2Zm0,359h-1v1h1v-1Zm200,0v1h1v-1h-1Zm0-360h1v-1h-1v1Zm-200,0v-1h-1v1h1Z"/></g><g class="m"><path class="o" d="m360,704v-360h-2v360h2Zm199-1h-200v2h200v-2Zm-1-359v360h2v-360h-2Zm-199,1h200v-2h-200v2Zm0,359h-1v1h1v-1Zm200,0v1h1v-1h-1Zm0-360h1v-1h-1v1Zm-200,0v-1h-1v1h1Z"/></g><g class="k"><path class="o" d="m140,1206v-360h-2v360h2Zm199-1h-200v2h200v-2Zm-1-359v360h2v-360h-2Zm-199,1h200v-2h-200v2Zm0,359h-1v1h1v-1Zm200,0v1h1v-1h-1Zm0-360h1v-1h-1v1Zm-200,0v-1h-1v1h1Z"/></g><g class="j"><path class="o" d="m360,1084v-360h-2v360h2Zm199-1h-200v2h200v-2Zm-1-359v360h2v-360h-2Zm-199,1h200v-2h-200v2Zm0,359h-1v1h1v-1Zm200,0v1h1v-1h-1Zm0-360h1v-1h-1v1Zm-200,0v-1h-1v1h1Z"/></g></g></svg>