<?xml version="1.0" encoding="utf-8"?>
<!-- Generator: Adobe Illustrator 27.7.0, SVG Export Plug-In . SVG Version: 6.00 Build 0)  -->
<svg version="1.1" id="レイヤー_1" xmlns="http://www.w3.org/2000/svg" xmlns:xlink="http://www.w3.org/1999/xlink" x="0px"
	 y="0px" viewBox="0 0 1202 569.6" style="enable-background:new 0 0 1202 569.6;" xml:space="preserve">
<style type="text/css">
	.st0{fill:#CCCED0;}
</style>
<path class="st0" d="M0,0h1v569.6H0V0z M21,0h1v569.6h-1V0z M220,0h1v569.6h-1V0z M241,0h1v569.6h-1V0z M440,0h1v569.6h-1V0z M461,0
	h1v569.6h-1V0z M1180,0h1v569.6h-1V0z M1201,0h1v569.6h-1V0z M960,0h1v569.6h-1V0z M981,0h1v569.6h-1V0z M740,0h1v569.6h-1V0z
	 M761,0h1v569.6h-1V0z"/>
</svg>
