<?xml version="1.0" encoding="utf-8"?>
<!-- Generator: Adobe Illustrator 27.7.0, SVG Export Plug-In . SVG Version: 6.00 Build 0)  -->
<svg version="1.1" id="レイヤー_1" xmlns="http://www.w3.org/2000/svg" xmlns:xlink="http://www.w3.org/1999/xlink" x="0px"
	 y="0px" viewBox="0 0 1202 4249" style="enable-background:new 0 0 1202 4249;" xml:space="preserve">
<style type="text/css">
	.st0{fill:#CCCED0;}
	.st1{clip-path:url(#SVGID_00000132062476339347639920000014002125056173809332_);fill:#CCCED0;}
	.st2{clip-path:url(#SVGID_00000045598367274253441080000005618289158445716131_);fill:#CCCED0;}
	.st3{clip-path:url(#SVGID_00000060032663604151798150000009442319623981964212_);fill:#CCCED0;}
	.st4{clip-path:url(#SVGID_00000108280876898834830910000001313552562614534067_);fill:#CCCED0;}
	.st5{clip-path:url(#SVGID_00000100381774983783980220000008361265856992477873_);fill:#CCCED0;}
</style>
<g id="レイヤー_4">
	<path class="st0" d="M0,0h1v4249H0V0z M21,0h1v4249h-1V0z M220,0h1v4249h-1V0z M241,0h1v4249h-1V0z M440,0h1v4249h-1V0z M461,0h1
		v4249h-1V0z M1180,0h1v4249h-1V0z M1201,0h1v4249h-1V0z M960,0h1v4249h-1V0z M981,0h1v4249h-1V0z M740,0h1v4249h-1V0z M761,0h1
		v4249h-1V0z"/>
	<g>
		<g>
			<defs>
				<rect id="SVGID_1_" x="21" y="86" width="200" height="360"/>
			</defs>
			<clipPath id="SVGID_00000150074351297463588620000001747360822544307106_">
				<use xlink:href="#SVGID_1_"  style="overflow:visible;"/>
			</clipPath>
			<path style="clip-path:url(#SVGID_00000150074351297463588620000001747360822544307106_);fill:#CCCED0;" d="M22,446V86h-2v360H22
				z M221,445H21v2h200V445z M220,86v360h2V86H220z M21,87h200v-2H21V87z M21,446h-1v1h1V446z M221,446v1h1v-1H221z M221,86h1v-1h-1
				V86z M21,86v-1h-1v1H21z"/>
		</g>
	</g>
	<g>
		<g>
			<defs>
				<rect id="SVGID_00000092421944561973999210000013663511049158690227_" x="21" y="466" width="200" height="360"/>
			</defs>
			<clipPath id="SVGID_00000026160864824446637550000008261143587193132689_">
				<use xlink:href="#SVGID_00000092421944561973999210000013663511049158690227_"  style="overflow:visible;"/>
			</clipPath>
			<path style="clip-path:url(#SVGID_00000026160864824446637550000008261143587193132689_);fill:#CCCED0;" d="M22,826V466h-2v360
				H22z M221,825H21v2h200V825z M220,466v360h2V466H220z M21,467h200v-2H21V467z M21,826h-1v1h1V826z M221,826v1h1v-1H221z M221,466
				h1v-1h-1V466z M21,466v-1h-1v1H21z"/>
		</g>
	</g>
	<g>
		<g>
			<defs>
				<rect id="SVGID_00000171691109173662758260000014225246169568482724_" x="241" y="344" width="200" height="360"/>
			</defs>
			<clipPath id="SVGID_00000109733728785375764760000001367047459283333808_">
				<use xlink:href="#SVGID_00000171691109173662758260000014225246169568482724_"  style="overflow:visible;"/>
			</clipPath>
			<path style="clip-path:url(#SVGID_00000109733728785375764760000001367047459283333808_);fill:#CCCED0;" d="M242,704V344h-2v360
				H242z M441,703H241v2h200V703z M440,344v360h2V344H440z M241,345h200v-2H241V345z M241,704h-1v1h1V704z M441,704v1h1v-1H441z
				 M441,344h1v-1h-1V344z M241,344v-1h-1v1H241z"/>
		</g>
	</g>
	<g>
		<g>
			<defs>
				<rect id="SVGID_00000111177386770445041670000000790147019852857764_" x="21" y="846" width="200" height="360"/>
			</defs>
			<clipPath id="SVGID_00000168119101898364899510000003557988331100435334_">
				<use xlink:href="#SVGID_00000111177386770445041670000000790147019852857764_"  style="overflow:visible;"/>
			</clipPath>
			<path style="clip-path:url(#SVGID_00000168119101898364899510000003557988331100435334_);fill:#CCCED0;" d="M22,1206V846h-2v360
				H22z M221,1205H21v2h200V1205z M220,846v360h2V846H220z M21,847h200v-2H21V847z M21,1206h-1v1h1V1206z M221,1206v1h1v-1H221z
				 M221,846h1v-1h-1V846z M21,846v-1h-1v1H21z"/>
		</g>
	</g>
	<g>
		<g>
			<defs>
				<rect id="SVGID_00000084494480166913785610000004540622778632531379_" x="241" y="724" width="200" height="360"/>
			</defs>
			<clipPath id="SVGID_00000003827367727998554200000011296659890215088774_">
				<use xlink:href="#SVGID_00000084494480166913785610000004540622778632531379_"  style="overflow:visible;"/>
			</clipPath>
			<path style="clip-path:url(#SVGID_00000003827367727998554200000011296659890215088774_);fill:#CCCED0;" d="M242,1084V724h-2v360
				H242z M441,1083H241v2h200V1083z M440,724v360h2V724H440z M241,725h200v-2H241V725z M241,1084h-1v1h1V1084z M441,1084v1h1v-1H441
				z M441,724h1v-1h-1V724z M241,724v-1h-1v1H241z"/>
		</g>
	</g>
</g>
</svg>
