<?xml version="1.0" encoding="utf-8"?>
<!-- Generator: Adobe Illustrator 27.7.0, SVG Export Plug-In . SVG Version: 6.00 Build 0)  -->
<svg version="1.1" id="レイヤー_1" xmlns="http://www.w3.org/2000/svg" xmlns:xlink="http://www.w3.org/1999/xlink" x="0px"
	 y="0px" viewBox="0 0 1440 1000" style="enable-background:new 0 0 1440 1000;" xml:space="preserve">
<style type="text/css">
	.st0{fill:#CCCED0;}
</style>
<g>
	<path class="st0" d="M0,275.2h1440v1H0V275.2z M0,295.2h1440v1H0V295.2z M0,394.2h1440v1H0V394.2z M0,415.2h1440v1H0V415.2z
		 M0,515.2h1440v1H0V515.2z M0,535.2h1440v1H0V535.2z M0,634.2h1440v1H0V634.2z M0,655.2h1440v1H0V655.2z M0,754.2h1440v1H0V754.2z
		 M0,774.2h1440v1H0V774.2z"/>
</g>
</svg>
