<svg xmlns="http://www.w3.org/2000/svg" width="150" height="61" fill="none"><path fill="#71FF01" d="m150 29.295-21.5-18.478H9v49.587h17.099l36.917.413H150V29.295Z"/><path fill="#00081A" stroke="#fff" d="M139.5 50.317V19.263L118.468 1.317H.5v49h139Z"/><path fill="#fff" d="M24.9 22.877c0-.587-.06-1.053-.18-1.4s-.307-.607-.56-.78c-.24-.187-.56-.307-.96-.36-.387-.053-.853-.08-1.4-.08-.04 1.813-.06 3.627-.06 5.44.08.013.153.027.22.04h.22c.88 0 1.553-.233 2.02-.7.467-.48.7-1.2.7-2.16Zm-3.16 3.68v.82c0 1.107.013 2.093.04 2.96.027.853.067 1.693.12 2.52a6.348 6.348 0 0 0-.74-.04h-1.8c-.267 0-.513.013-.74.04.053-.827.093-1.667.12-2.52.027-.867.04-1.853.04-2.96v-2.72a84.988 84.988 0 0 0-.16-5.54c.227.027.473.053.74.08.267.013.567.02.9.02.36 0 .767-.013 1.22-.04.467-.04 1.04-.06 1.72-.06.507 0 .94.013 1.3.04a7.1 7.1 0 0 1 .92.12c.267.053.493.127.68.22.2.08.387.18.56.3.4.293.713.66.94 1.1.24.427.36.94.36 1.54 0 .973-.267 1.767-.8 2.38s-1.3 1.047-2.3 1.3a66.026 66.026 0 0 0 2.06 3.4c.733 1.12 1.467 2.233 2.2 3.34-.307-.027-.607-.04-.9-.04H26.4c-.293 0-.593.013-.9.04l-3.58-6.3h-.18Zm11.107 1.52c0 .533.053 1.033.16 1.5.106.467.266.873.48 1.22.226.333.506.6.84.8.346.187.746.28 1.2.28.92 0 1.74-.3 2.46-.9l.24.18-.44 1.12a3.896 3.896 0 0 1-1.2.6c-.467.16-1.08.24-1.84.24a6.097 6.097 0 0 1-1.86-.28 3.946 3.946 0 0 1-1.56-.88c-.44-.413-.794-.933-1.06-1.56-.254-.64-.38-1.4-.38-2.28 0-.867.113-1.62.34-2.26.24-.64.566-1.173.98-1.6a3.98 3.98 0 0 1 1.46-.96 5.292 5.292 0 0 1 1.86-.32c1.32 0 2.326.387 3.02 1.16.706.773 1.06 1.867 1.06 3.28v.42c0 .12-.007.2-.02.24h-5.74Zm3.08-.9c-.027-1-.154-1.8-.38-2.4-.214-.6-.58-.9-1.1-.9-.294 0-.54.1-.74.3-.2.2-.36.46-.48.78a5.31 5.31 0 0 0-.28 1.06c-.054.387-.087.773-.1 1.16h3.08Zm8.18-3.38c-.907 0-1.36.88-1.36 2.64 0 .44.04.813.12 1.12.08.293.18.533.3.72.133.187.273.32.42.4.16.08.32.12.48.12.44 0 .766-.193.98-.58.213-.387.32-1.04.32-1.96 0-.907-.12-1.54-.36-1.9-.24-.373-.54-.56-.9-.56Zm2.98.2c.333.24.593.547.78.92.2.36.3.793.3 1.3 0 .493-.094.947-.28 1.36-.187.4-.454.747-.8 1.04-.334.293-.74.52-1.22.68-.467.16-.994.24-1.58.24h-.44a4.688 4.688 0 0 0-.46-.02c-.16 0-.3.073-.42.22a.828.828 0 0 0-.16.5c0 .32.12.573.36.76.253.187.646.287 1.18.3l1.48.02c1.12.013 1.94.227 2.46.64.533.4.8 1.047.8 1.94 0 .8-.167 1.467-.5 2-.32.547-.74.987-1.26 1.32a4.998 4.998 0 0 1-1.7.74 7.977 7.977 0 0 1-1.82.22c-1.254 0-2.234-.247-2.94-.74-.694-.48-1.04-1.12-1.04-1.92 0-.64.173-1.16.52-1.56.36-.387.84-.693 1.44-.92v-.04a1.95 1.95 0 0 1-.84-.54c-.2-.253-.3-.567-.3-.94 0-.44.166-.867.5-1.28.346-.413.8-.693 1.36-.84v-.04c-.814-.2-1.44-.56-1.88-1.08-.454-.533-.68-1.227-.68-2.08a3 3 0 0 1 .3-1.36c.213-.4.506-.733.88-1 .373-.28.82-.493 1.34-.64a6.322 6.322 0 0 1 1.72-.22c.24 0 .486.013.74.04l.74.04.52.04H47.827c.36-.013.72-.02 1.08-.02l-.04.24v.48l.04.24-1.76-.08-.06.04Zm-.32 10.98c0-.387-.067-.707-.2-.96a1.384 1.384 0 0 0-.58-.56 2.65 2.65 0 0 0-.9-.28c-.36-.04-.767-.06-1.22-.06-.694 0-1.174.067-1.44.2-.16.08-.334.273-.52.58-.174.307-.26.693-.26 1.16 0 .387.066.72.2 1 .146.293.34.533.58.72.24.187.513.327.82.42.32.107.66.16 1.02.16.386 0 .733-.067 1.04-.2.306-.12.566-.293.78-.52.226-.213.393-.467.5-.76.12-.28.18-.58.18-.9Zm3.66-15.52c0-.44.153-.813.46-1.12.306-.307.68-.46 1.12-.46.44 0 .813.153 1.12.46.306.307.46.68.46 1.12 0 .44-.154.813-.46 1.12-.307.307-.68.46-1.12.46-.44 0-.814-.153-1.12-.46a1.524 1.524 0 0 1-.46-1.12Zm.24 8.22c0-.813-.014-1.573-.04-2.28-.014-.72-.054-1.44-.12-2.16.186.027.406.053.66.08.253.013.533.02.84.02.626 0 1.126-.033 1.5-.1-.067.72-.114 1.44-.14 2.16-.014.707-.02 1.467-.02 2.28v.8c0 .813.006 1.58.02 2.3.026.72.073 1.413.14 2.08a4.471 4.471 0 0 0-.66-.04h-1.68c-.254 0-.474.013-.66.04.066-.667.106-1.36.12-2.08.026-.72.04-1.487.04-2.3v-.8Zm5.506 2.72c.08.213.18.42.3.62.133.187.293.36.48.52.187.147.407.267.66.36.267.093.573.14.92.14.467 0 .827-.12 1.08-.36.253-.24.38-.5.38-.78a.911.911 0 0 0-.34-.74 3.482 3.482 0 0 0-.86-.5c-.333-.16-.7-.32-1.1-.48-.4-.16-.773-.36-1.12-.6a3.349 3.349 0 0 1-.84-.94c-.227-.373-.34-.853-.34-1.44 0-.56.1-1.04.3-1.44.213-.413.487-.747.82-1 .333-.267.707-.46 1.12-.58a4.21 4.21 0 0 1 1.26-.2c.56 0 1.053.08 1.48.24.44.16.887.393 1.34.7-.12.267-.22.553-.3.86-.08.307-.14.607-.18.9h-.56a2.575 2.575 0 0 0-.2-.52 2.19 2.19 0 0 0-.38-.56 1.855 1.855 0 0 0-.58-.42c-.227-.12-.5-.18-.82-.18-.4 0-.74.107-1.02.32-.267.213-.4.493-.4.84 0 .32.113.58.34.78.24.187.533.353.88.5.347.147.727.293 1.14.44.413.147.793.34 1.14.58.347.227.633.527.86.9.24.373.36.853.36 1.44s-.107 1.093-.32 1.52c-.213.413-.5.76-.86 1.04a3.54 3.54 0 0 1-1.24.58c-.453.12-.933.18-1.44.18-.6 0-1.14-.087-1.62-.26-.48-.173-.86-.353-1.14-.54.16-.64.26-1.28.3-1.92h.5Zm12.713-7.06c-.04.2-.06.38-.06.54 0 .173.02.34.06.5l-1.76-.04c-.026.307-.053.66-.08 1.06l-.04 1.22c0 .413-.006.813-.02 1.2v.98c0 .693.014 1.253.04 1.68.04.427.1.753.18.98.08.227.194.38.34.46.147.08.334.12.56.12.254 0 .44-.013.56-.04.12-.04.24-.093.36-.16v.82c-.266.12-.6.227-1 .32s-.793.14-1.18.14c-1.693 0-2.54-1.013-2.54-3.04 0-.387.007-.82.02-1.3l.04-1.5c.027-.52.047-1.027.06-1.52.014-.507.02-.973.02-1.4l-1.4.02c.04-.16.06-.327.06-.5 0-.16-.02-.34-.06-.54l1.4.06c0-.413-.006-.8-.02-1.16-.013-.36-.033-.793-.06-1.3a42.8 42.8 0 0 0 1.38-.58c.454-.213.907-.433 1.36-.66l.2.14c-.026.213-.053.467-.08.76-.013.28-.033.58-.06.9l-.04.96v.92l1.76-.04Zm3.96 4.74c0 .533.054 1.033.16 1.5.107.467.267.873.48 1.22.227.333.507.6.84.8.347.187.747.28 1.2.28.92 0 1.74-.3 2.46-.9l.24.18-.44 1.12a3.896 3.896 0 0 1-1.2.6c-.466.16-1.08.24-1.84.24a6.097 6.097 0 0 1-1.86-.28 3.946 3.946 0 0 1-1.56-.88c-.44-.413-.793-.933-1.06-1.56-.253-.64-.38-1.4-.38-2.28 0-.867.114-1.62.34-2.26.24-.64.567-1.173.98-1.6a3.98 3.98 0 0 1 1.46-.96 5.292 5.292 0 0 1 1.86-.32c1.32 0 2.327.387 3.02 1.16.707.773 1.06 1.867 1.06 3.28v.42c0 .12-.006.2-.02.24h-5.74Zm3.08-.9c-.026-1-.153-1.8-.38-2.4-.213-.6-.58-.9-1.1-.9-.293 0-.54.1-.74.3-.2.2-.36.46-.48.78a5.31 5.31 0 0 0-.28 1.06c-.053.387-.086.773-.1 1.16h3.08Zm7.24-1.46c.347-.92.767-1.593 1.26-2.02.494-.44 1.08-.66 1.76-.66.067 0 .12.007.16.02h.16c-.04.2-.073.413-.1.64-.013.227-.02.493-.02.8v.98c0 .12.007.233.02.34l-.18.16a2.08 2.08 0 0 0-.46-.2 1.774 1.774 0 0 0-.56-.08c-.6 0-1.073.2-1.42.6-.346.387-.52.847-.52 1.38v.8c0 .813.007 1.58.02 2.3.027.72.074 1.413.14 2.08a4.471 4.471 0 0 0-.66-.04h-1.68c-.253 0-.473.013-.66.04.067-.667.107-1.36.12-2.08.027-.72.04-1.487.04-2.3v-.8c0-.813-.013-1.573-.04-2.28-.013-.72-.053-1.44-.12-2.16l.68.08a12.657 12.657 0 0 0 1.38 0c.24-.027.474-.053.7-.08l-.06 2.44.04.04Z"/><path stroke="#71FF01" stroke-linecap="square" stroke-width="2" d="m113.93 30.817 5.069-5-5.069-5M107 30.817l5.069-5-5.069-5"/></svg>