<svg width="151" height="70" viewBox="0 0 151 70" fill="none" xmlns="http://www.w3.org/2000/svg">
<path d="M151 38.4782L129.5 20H27.0986H16.8996H10V38.2113V53.8991V69.5868H27.0986L64.0162 70H124.293H151V38.4782Z" fill="#71FF01"/>
<path d="M0.5 18.3631V49.5H62.6535H97.6436H127.688H140.5V18.4472L119.317 0.5H62.6535H27.6634H0.5V18.3631Z" fill="white" stroke="#222222"/>
<path d="M25.9 22.06C25.9 21.4733 25.84 21.0067 25.72 20.66C25.6 20.3133 25.4133 20.0533 25.16 19.88C24.92 19.6933 24.6 19.5733 24.2 19.52C23.8133 19.4667 23.3467 19.44 22.8 19.44C22.76 21.2533 22.74 23.0667 22.74 24.88C22.82 24.8933 22.8933 24.9067 22.96 24.92C23.04 24.92 23.1133 24.92 23.18 24.92C24.06 24.92 24.7333 24.6867 25.2 24.22C25.6667 23.74 25.9 23.02 25.9 22.06ZM22.74 25.74V26.56C22.74 27.6667 22.7533 28.6533 22.78 29.52C22.8067 30.3733 22.8467 31.2133 22.9 32.04C22.6733 32.0133 22.4267 32 22.16 32C21.8933 32 21.5933 32 21.26 32C20.9267 32 20.6267 32 20.36 32C20.0933 32 19.8467 32.0133 19.62 32.04C19.6733 31.2133 19.7133 30.3733 19.74 29.52C19.7667 28.6533 19.78 27.6667 19.78 26.56V23.84C19.78 22.7333 19.7667 21.7533 19.74 20.9C19.7133 20.0333 19.6733 19.1667 19.62 18.3C19.8467 18.3267 20.0933 18.3533 20.36 18.38C20.6267 18.3933 20.9267 18.4 21.26 18.4C21.62 18.4 22.0267 18.3867 22.48 18.36C22.9467 18.32 23.52 18.3 24.2 18.3C24.7067 18.3 25.14 18.3133 25.5 18.34C25.86 18.3667 26.1667 18.4067 26.42 18.46C26.6867 18.5133 26.9133 18.5867 27.1 18.68C27.3 18.76 27.4867 18.86 27.66 18.98C28.06 19.2733 28.3733 19.64 28.6 20.08C28.84 20.5067 28.96 21.02 28.96 21.62C28.96 22.5933 28.6933 23.3867 28.16 24C27.6267 24.6133 26.86 25.0467 25.86 25.3C26.5 26.4333 27.1867 27.5667 27.92 28.7C28.6533 29.82 29.3867 30.9333 30.12 32.04C29.8133 32.0133 29.5133 32 29.22 32C28.9267 32 28.6267 32 28.32 32C28.0133 32 27.7067 32 27.4 32C27.1067 32 26.8067 32.0133 26.5 32.04L22.92 25.74H22.74ZM33.8466 27.26C33.8466 27.7933 33.8999 28.2933 34.0066 28.76C34.1132 29.2267 34.2732 29.6333 34.4866 29.98C34.7132 30.3133 34.9932 30.58 35.3266 30.78C35.6732 30.9667 36.0732 31.06 36.5266 31.06C37.4466 31.06 38.2666 30.76 38.9866 30.16L39.2266 30.34L38.7866 31.46C38.4532 31.7133 38.0532 31.9133 37.5866 32.06C37.1199 32.22 36.5066 32.3 35.7466 32.3C35.0932 32.3 34.4732 32.2067 33.8866 32.02C33.2999 31.8467 32.7799 31.5533 32.3266 31.14C31.8866 30.7267 31.5332 30.2067 31.2666 29.58C31.0132 28.94 30.8866 28.18 30.8866 27.3C30.8866 26.4333 30.9999 25.68 31.2266 25.04C31.4666 24.4 31.7932 23.8667 32.2066 23.44C32.6199 23.0133 33.1066 22.6933 33.6666 22.48C34.2399 22.2667 34.8599 22.16 35.5266 22.16C36.8466 22.16 37.8532 22.5467 38.5466 23.32C39.2532 24.0933 39.6066 25.1867 39.6066 26.6V27.02C39.6066 27.14 39.5999 27.22 39.5866 27.26H33.8466ZM36.9266 26.36C36.8999 25.36 36.7732 24.56 36.5466 23.96C36.3332 23.36 35.9666 23.06 35.4466 23.06C35.1532 23.06 34.9066 23.16 34.7066 23.36C34.5066 23.56 34.3466 23.82 34.2266 24.14C34.1066 24.4467 34.0132 24.8 33.9466 25.2C33.8932 25.5867 33.8599 25.9733 33.8466 26.36H36.9266ZM45.1066 22.98C44.1999 22.98 43.7466 23.86 43.7466 25.62C43.7466 26.06 43.7866 26.4333 43.8666 26.74C43.9466 27.0333 44.0466 27.2733 44.1666 27.46C44.2999 27.6467 44.4399 27.78 44.5866 27.86C44.7466 27.94 44.9066 27.98 45.0666 27.98C45.5066 27.98 45.8332 27.7867 46.0466 27.4C46.2599 27.0133 46.3666 26.36 46.3666 25.44C46.3666 24.5333 46.2466 23.9 46.0066 23.54C45.7666 23.1667 45.4666 22.98 45.1066 22.98ZM48.0866 23.18C48.4199 23.42 48.6799 23.7267 48.8666 24.1C49.0666 24.46 49.1666 24.8933 49.1666 25.4C49.1666 25.8933 49.0732 26.3467 48.8866 26.76C48.6999 27.16 48.4332 27.5067 48.0866 27.8C47.7532 28.0933 47.3466 28.32 46.8666 28.48C46.3999 28.64 45.8732 28.72 45.2866 28.72C45.1399 28.72 44.9932 28.72 44.8466 28.72C44.7132 28.7067 44.5599 28.7 44.3866 28.7C44.2266 28.7 44.0866 28.7733 43.9666 28.92C43.8599 29.0667 43.8066 29.2333 43.8066 29.42C43.8066 29.74 43.9266 29.9933 44.1666 30.18C44.4199 30.3667 44.8132 30.4667 45.3466 30.48L46.8266 30.5C47.9466 30.5133 48.7666 30.7267 49.2866 31.14C49.8199 31.54 50.0866 32.1867 50.0866 33.08C50.0866 33.88 49.9199 34.5467 49.5866 35.08C49.2666 35.6267 48.8466 36.0667 48.3266 36.4C47.8199 36.7467 47.2532 36.9933 46.6266 37.14C45.9999 37.2867 45.3932 37.36 44.8066 37.36C43.5532 37.36 42.5732 37.1133 41.8666 36.62C41.1732 36.14 40.8266 35.5 40.8266 34.7C40.8266 34.06 40.9999 33.54 41.3466 33.14C41.7066 32.7533 42.1866 32.4467 42.7866 32.22V32.18C42.4399 32.06 42.1599 31.88 41.9466 31.64C41.7466 31.3867 41.6466 31.0733 41.6466 30.7C41.6466 30.26 41.8132 29.8333 42.1466 29.42C42.4932 29.0067 42.9466 28.7267 43.5066 28.58V28.54C42.6932 28.34 42.0666 27.98 41.6266 27.46C41.1732 26.9267 40.9466 26.2333 40.9466 25.38C40.9466 24.8733 41.0466 24.42 41.2466 24.02C41.4599 23.62 41.7532 23.2867 42.1266 23.02C42.4999 22.74 42.9466 22.5267 43.4666 22.38C43.9866 22.2333 44.5599 22.16 45.1866 22.16C45.4266 22.16 45.6732 22.1733 45.9266 22.2C46.1799 22.2133 46.4266 22.2267 46.6666 22.24C46.8399 22.2533 47.0132 22.2667 47.1866 22.28C47.3732 22.28 47.5732 22.28 47.7866 22.28C48.1199 22.28 48.4666 22.28 48.8266 22.28C49.1866 22.2667 49.5466 22.26 49.9066 22.26C49.8932 22.34 49.8799 22.42 49.8666 22.5C49.8666 22.58 49.8666 22.66 49.8666 22.74C49.8666 22.82 49.8666 22.9 49.8666 22.98C49.8799 23.06 49.8932 23.14 49.9066 23.22L48.1466 23.14L48.0866 23.18ZM47.7666 34.16C47.7666 33.7733 47.6999 33.4533 47.5666 33.2C47.4332 32.96 47.2399 32.7733 46.9866 32.64C46.7466 32.5067 46.4466 32.4133 46.0866 32.36C45.7266 32.32 45.3199 32.3 44.8666 32.3C44.1732 32.3 43.6932 32.3667 43.4266 32.5C43.2666 32.58 43.0932 32.7733 42.9066 33.08C42.7332 33.3867 42.6466 33.7733 42.6466 34.24C42.6466 34.6267 42.7132 34.96 42.8466 35.24C42.9932 35.5333 43.1866 35.7733 43.4266 35.96C43.6666 36.1467 43.9399 36.2867 44.2466 36.38C44.5666 36.4867 44.9066 36.54 45.2666 36.54C45.6532 36.54 45.9999 36.4733 46.3066 36.34C46.6132 36.22 46.8732 36.0467 47.0866 35.82C47.3132 35.6067 47.4799 35.3533 47.5866 35.06C47.7066 34.78 47.7666 34.48 47.7666 34.16ZM51.4266 18.64C51.4266 18.2 51.5799 17.8267 51.8866 17.52C52.1932 17.2133 52.5666 17.06 53.0066 17.06C53.4466 17.06 53.8199 17.2133 54.1266 17.52C54.4332 17.8267 54.5866 18.2 54.5866 18.64C54.5866 19.08 54.4332 19.4533 54.1266 19.76C53.8199 20.0667 53.4466 20.22 53.0066 20.22C52.5666 20.22 52.1932 20.0667 51.8866 19.76C51.5799 19.4533 51.4266 19.08 51.4266 18.64ZM51.6666 26.86C51.6666 26.0467 51.6532 25.2867 51.6266 24.58C51.6132 23.86 51.5732 23.14 51.5066 22.42C51.6932 22.4467 51.9132 22.4733 52.1666 22.5C52.4199 22.5133 52.6999 22.52 53.0066 22.52C53.6332 22.52 54.1332 22.4867 54.5066 22.42C54.4399 23.14 54.3932 23.86 54.3666 24.58C54.3532 25.2867 54.3466 26.0467 54.3466 26.86V27.66C54.3466 28.4733 54.3532 29.24 54.3666 29.96C54.3932 30.68 54.4399 31.3733 54.5066 32.04C54.3332 32.0133 54.1132 32 53.8466 32C53.5932 32 53.3132 32 53.0066 32C52.6999 32 52.4199 32 52.1666 32C51.9132 32 51.6932 32.0133 51.5066 32.04C51.5732 31.3733 51.6132 30.68 51.6266 29.96C51.6532 29.24 51.6666 28.4733 51.6666 27.66V26.86ZM57.173 29.58C57.253 29.7933 57.353 30 57.473 30.2C57.6063 30.3867 57.7663 30.56 57.953 30.72C58.1396 30.8667 58.3596 30.9867 58.613 31.08C58.8796 31.1733 59.1863 31.22 59.533 31.22C59.9996 31.22 60.3596 31.1 60.613 30.86C60.8663 30.62 60.993 30.36 60.993 30.08C60.993 29.7733 60.8796 29.5267 60.653 29.34C60.4263 29.1533 60.1396 28.9867 59.793 28.84C59.4596 28.68 59.093 28.52 58.693 28.36C58.293 28.2 57.9196 28 57.573 27.76C57.2396 27.5067 56.9596 27.1933 56.733 26.82C56.5063 26.4467 56.393 25.9667 56.393 25.38C56.393 24.82 56.493 24.34 56.693 23.94C56.9063 23.5267 57.1796 23.1933 57.513 22.94C57.8463 22.6733 58.2196 22.48 58.633 22.36C59.0596 22.2267 59.4796 22.16 59.893 22.16C60.453 22.16 60.9463 22.24 61.373 22.4C61.813 22.56 62.2596 22.7933 62.713 23.1C62.593 23.3667 62.493 23.6533 62.413 23.96C62.333 24.2667 62.273 24.5667 62.233 24.86H61.673C61.633 24.7 61.5663 24.5267 61.473 24.34C61.3796 24.14 61.253 23.9533 61.093 23.78C60.933 23.6067 60.7396 23.4667 60.513 23.36C60.2863 23.24 60.013 23.18 59.693 23.18C59.293 23.18 58.953 23.2867 58.673 23.5C58.4063 23.7133 58.273 23.9933 58.273 24.34C58.273 24.66 58.3863 24.92 58.613 25.12C58.853 25.3067 59.1463 25.4733 59.493 25.62C59.8396 25.7667 60.2196 25.9133 60.633 26.06C61.0463 26.2067 61.4263 26.4 61.773 26.64C62.1196 26.8667 62.4063 27.1667 62.633 27.54C62.873 27.9133 62.993 28.3933 62.993 28.98C62.993 29.5667 62.8863 30.0733 62.673 30.5C62.4596 30.9133 62.173 31.26 61.813 31.54C61.453 31.8067 61.0396 32 60.573 32.12C60.1196 32.24 59.6396 32.3 59.133 32.3C58.533 32.3 57.993 32.2133 57.513 32.04C57.033 31.8667 56.653 31.6867 56.373 31.5C56.533 30.86 56.633 30.22 56.673 29.58H57.173ZM69.8864 22.52C69.8464 22.72 69.8264 22.9 69.8264 23.06C69.8264 23.2333 69.8464 23.4 69.8864 23.56L68.1264 23.52C68.0997 23.8267 68.0731 24.18 68.0464 24.58C68.0331 24.98 68.0197 25.3867 68.0064 25.8C68.0064 26.2133 67.9997 26.6133 67.9864 27C67.9864 27.3867 67.9864 27.7133 67.9864 27.98C67.9864 28.6733 67.9997 29.2333 68.0264 29.66C68.0664 30.0867 68.1264 30.4133 68.2064 30.64C68.2864 30.8667 68.3997 31.02 68.5464 31.1C68.6931 31.18 68.8797 31.22 69.1064 31.22C69.3597 31.22 69.5464 31.2067 69.6664 31.18C69.7864 31.14 69.9064 31.0867 70.0264 31.02V31.84C69.7597 31.96 69.4264 32.0667 69.0264 32.16C68.6264 32.2533 68.2331 32.3 67.8464 32.3C66.1531 32.3 65.3064 31.2867 65.3064 29.26C65.3064 28.8733 65.3131 28.44 65.3264 27.96C65.3397 27.4667 65.3531 26.9667 65.3664 26.46C65.3931 25.94 65.4131 25.4333 65.4264 24.94C65.4397 24.4333 65.4464 23.9667 65.4464 23.54L64.0464 23.56C64.0864 23.4 64.1064 23.2333 64.1064 23.06C64.1064 22.9 64.0864 22.72 64.0464 22.52L65.4464 22.58C65.4464 22.1667 65.4397 21.78 65.4264 21.42C65.4131 21.06 65.3931 20.6267 65.3664 20.12C65.8331 19.9333 66.2931 19.74 66.7464 19.54C67.1997 19.3267 67.6531 19.1067 68.1064 18.88L68.3064 19.02C68.2797 19.2333 68.2531 19.4867 68.2264 19.78C68.2131 20.06 68.1931 20.36 68.1664 20.68C68.1531 20.9867 68.1397 21.3067 68.1264 21.64C68.1264 21.96 68.1264 22.2667 68.1264 22.56L69.8864 22.52ZM73.8466 27.26C73.8466 27.7933 73.8999 28.2933 74.0066 28.76C74.1132 29.2267 74.2732 29.6333 74.4866 29.98C74.7132 30.3133 74.9932 30.58 75.3266 30.78C75.6732 30.9667 76.0732 31.06 76.5266 31.06C77.4466 31.06 78.2666 30.76 78.9866 30.16L79.2266 30.34L78.7866 31.46C78.4532 31.7133 78.0532 31.9133 77.5866 32.06C77.1199 32.22 76.5066 32.3 75.7466 32.3C75.0932 32.3 74.4732 32.2067 73.8866 32.02C73.2999 31.8467 72.7799 31.5533 72.3266 31.14C71.8866 30.7267 71.5332 30.2067 71.2666 29.58C71.0132 28.94 70.8866 28.18 70.8866 27.3C70.8866 26.4333 70.9999 25.68 71.2266 25.04C71.4666 24.4 71.7932 23.8667 72.2066 23.44C72.6199 23.0133 73.1066 22.6933 73.6666 22.48C74.2399 22.2667 74.8599 22.16 75.5266 22.16C76.8466 22.16 77.8532 22.5467 78.5466 23.32C79.2532 24.0933 79.6066 25.1867 79.6066 26.6V27.02C79.6066 27.14 79.5999 27.22 79.5866 27.26H73.8466ZM76.9266 26.36C76.8999 25.36 76.7732 24.56 76.5466 23.96C76.3332 23.36 75.9666 23.06 75.4466 23.06C75.1532 23.06 74.9066 23.16 74.7066 23.36C74.5066 23.56 74.3466 23.82 74.2266 24.14C74.1066 24.4467 74.0132 24.8 73.9466 25.2C73.8932 25.5867 73.8599 25.9733 73.8466 26.36H76.9266ZM84.1666 24.9C84.5132 23.98 84.9332 23.3067 85.4266 22.88C85.9199 22.44 86.5066 22.22 87.1866 22.22C87.2532 22.22 87.3066 22.2267 87.3466 22.24C87.3999 22.24 87.4532 22.24 87.5066 22.24C87.4666 22.44 87.4332 22.6533 87.4066 22.88C87.3932 23.1067 87.3866 23.3733 87.3866 23.68V24.32C87.3866 24.4267 87.3866 24.54 87.3866 24.66C87.3866 24.78 87.3932 24.8933 87.4066 25L87.2266 25.16C87.0932 25.08 86.9399 25.0133 86.7666 24.96C86.6066 24.9067 86.4199 24.88 86.2066 24.88C85.6066 24.88 85.1332 25.08 84.7866 25.48C84.4399 25.8667 84.2666 26.3267 84.2666 26.86V27.66C84.2666 28.4733 84.2732 29.24 84.2866 29.96C84.3132 30.68 84.3599 31.3733 84.4266 32.04C84.2532 32.0133 84.0332 32 83.7666 32C83.5132 32 83.2332 32 82.9266 32C82.6199 32 82.3399 32 82.0866 32C81.8332 32 81.6132 32.0133 81.4266 32.04C81.4932 31.3733 81.5332 30.68 81.5466 29.96C81.5732 29.24 81.5866 28.4733 81.5866 27.66V26.86C81.5866 26.0467 81.5732 25.2867 81.5466 24.58C81.5332 23.86 81.4932 23.14 81.4266 22.42C81.6532 22.4467 81.8799 22.4733 82.1066 22.5C82.3466 22.5133 82.5799 22.52 82.8066 22.52C83.0332 22.52 83.2599 22.5133 83.4866 22.5C83.7266 22.4733 83.9599 22.4467 84.1866 22.42L84.1266 24.86L84.1666 24.9Z" fill="black"/>
<path d="M114.93 30L119.999 25L114.93 20" stroke="#71FF01" stroke-width="2" stroke-linecap="square"/>
<path d="M108 30L113.069 25L108 20" stroke="#71FF01" stroke-width="2" stroke-linecap="square"/>
</svg>
