<svg width="451" height="120" viewBox="0 0 451 120" fill="none" xmlns="http://www.w3.org/2000/svg">
<path d="M451 10H11V22.4218V82.4403V96.5565V120H231H341H396H423.5H429.5L451 100V80.3365V89.3269V10Z" fill="#71FF01"/>
<mask id="path-2-inside-1_308_721" fill="white">
<path d="M441 0H0V12.4218V72.4403V86.5565V110H220.5H330.75H385.875H413.438H419.5L441 90V70.3365V79.3269V0Z"/>
</mask>
<path d="M441 0H442V-1H441V0ZM0 0V-1H-1V0H0ZM0 110H-1V111H0V110ZM419.5 110V111H419.893L420.181 110.732L419.5 110ZM441 90L441.681 90.7322L442 90.4355V90H441ZM441 -1H0V1H441V-1ZM-1 0V12.4218H1V0H-1ZM-1 86.5565V110H1V86.5565H-1ZM-1 12.4218V72.4403H1V12.4218H-1ZM-1 72.4403V86.5565H1V72.4403H-1ZM442 79.3269V0H440V79.3269H442ZM440 70.3365V79.3269H442V70.3365H440ZM0 111H220.5V109H0V111ZM220.5 111H330.75V109H220.5V111ZM442 90V70.3365H440V90H442ZM330.75 111H385.875V109H330.75V111ZM385.875 111H413.438V109H385.875V111ZM413.438 111H419.5V109H413.438V111ZM420.181 110.732L441.681 90.7322L440.319 89.2678L418.819 109.268L420.181 110.732Z" fill="#00081A" mask="url(#path-2-inside-1_308_721)"/>
</svg>
